<svg xmlns="http://www.w3.org/2000/svg" viewBox="0 0 32 32" width="32" height="32">
  <!-- Black circle background -->
  <circle cx="16" cy="16" r="14" fill="#000" stroke="#fff" stroke-width="1.5"/>
  <!-- Crossbones behind -->
  <g fill="#fff">
    <path d="M4 8 L8 12 L6 14 L2 10 Q1 8 4 8Z"/>
    <path d="M28 8 L24 12 L26 14 L30 10 Q31 8 28 8Z"/>
    <path d="M4 24 L8 20 L6 18 L2 22 Q1 24 4 24Z"/>
    <path d="M28 24 L24 20 L26 18 L30 22 Q31 24 28 24Z"/>
    <rect x="6" y="10" width="20" height="4" rx="2" transform="rotate(-35 16 12)"/>
    <rect x="6" y="18" width="20" height="4" rx="2" transform="rotate(35 16 20)"/>
  </g>
  <!-- Skull -->
  <ellipse cx="16" cy="15" rx="8" ry="7" fill="#fff"/>
  <ellipse cx="16" cy="17" rx="5" ry="4" fill="#fff"/>
  <!-- Eyes -->
  <ellipse cx="12" cy="14" rx="2.5" ry="3" fill="#000"/>
  <ellipse cx="20" cy="14" rx="2.5" ry="3" fill="#000"/>
  <!-- Nose -->
  <circle cx="16" cy="17" r="1" fill="#000"/>
  <!-- Mouth -->
  <path d="M11 20 Q16 23 21 20" stroke="#000" stroke-width="1" fill="none"/>
  <g fill="#fff" stroke="#000" stroke-width="0.3">
    <rect x="12" y="19" width="1.5" height="2.5" rx="0.3"/>
    <rect x="14.5" y="19" width="1.5" height="2.5" rx="0.3"/>
    <rect x="17" y="19" width="1.5" height="2.5" rx="0.3"/>
    <rect x="19.5" y="19" width="1.5" height="2.5" rx="0.3"/>
  </g>
  <!-- Straw hat -->
  <ellipse cx="16" cy="10" rx="9" ry="3" fill="#f59e0b"/>
  <path d="M7 10 Q7 6 16 5 Q25 6 25 10" fill="#f59e0b"/>
  <rect x="7" y="8" width="18" height="2" fill="#dc2626"/>
</svg>