<svg xmlns="http://www.w3.org/2000/svg" viewBox="0 0 32 32" width="32" height="32">
  <defs>
    <linearGradient id="goldBody" x1="0%" y1="0%" x2="0%" y2="100%">
      <stop offset="0%" style="stop-color:#ffe566"/>
      <stop offset="40%" style="stop-color:#ffcc00"/>
      <stop offset="100%" style="stop-color:#cc9900"/>
    </linearGradient>
    <linearGradient id="goldDark" x1="0%" y1="0%" x2="0%" y2="100%">
      <stop offset="0%" style="stop-color:#ffcc00"/>
      <stop offset="100%" style="stop-color:#996600"/>
    </linearGradient>
  </defs>
  <!-- Clash Royale Trophy Base -->
  <ellipse cx="16" cy="28" rx="8" ry="3" fill="#996600"/>
  <rect x="12" y="24" width="8" height="4" fill="url(#goldDark)"/>
  <!-- Trophy stem -->
  <rect x="14" y="18" width="4" height="6" fill="url(#goldDark)"/>
  <!-- Trophy cup -->
  <path d="M6 6 L8 16 L24 16 L26 6 Z" fill="url(#goldBody)" stroke="#996600" stroke-width="0.5"/>
  <!-- Trophy handles -->
  <path d="M6 8 Q2 8 2 12 Q2 15 6 14" fill="none" stroke="url(#goldBody)" stroke-width="2.5" stroke-linecap="round"/>
  <path d="M26 8 Q30 8 30 12 Q30 15 26 14" fill="none" stroke="url(#goldBody)" stroke-width="2.5" stroke-linecap="round"/>
  <!-- Crown points on trophy -->
  <path d="M9 6 L10 2 L13 5 L16 1 L19 5 L22 2 L23 6" fill="url(#goldBody)" stroke="#cc9900" stroke-width="0.5"/>
  <!-- Star emblem -->
  <polygon points="16,8 17.5,11 21,11.5 18.5,14 19,17.5 16,16 13,17.5 13.5,14 11,11.5 14.5,11" fill="#fff8e0" stroke="#cc9900" stroke-width="0.3"/>
  <!-- Shine -->
  <ellipse cx="11" cy="9" rx="1.5" ry="2" fill="white" opacity="0.4"/>
</svg>
